0 FILE ESM-9656-火車-車廂
0 Untitled Model
0 Name:  ESM-9656-火車-車廂
0 Author:  
0 CustomBrick
1 4 30.000000 -48.500000 -30.000000 1.000000 0.000000 0.000000 0.000000 1.000000 0.000000 0.000000 0.000000 1.000000 75350.dat
1 7 -90.000060 -24.499800 -31.000000 0.000000 0.000000 1.000000 0.000000 1.000000 0.000000 -1.000000 0.000000 0.000000 6522.dat
1 7 190.000000 -24.499600 -29.930000 0.000000 0.000000 1.000000 0.000000 1.000000 0.000000 -1.000000 0.000000 0.000000 6522.dat
0 STEP
1 14 -90.000110 -24.499800 29.999980 1.000000 0.000000 0.000000 0.000000 1.000000 0.000000 0.000000 0.000000 1.000000 6527.dat
1 14 -90.000050 -24.499800 -92.090000 -1.000000 0.000000 0.000000 0.000000 1.000000 0.000000 0.000000 0.000000 -1.000000 6527.dat
1 14 190.000000 -24.499610 31.070040 1.000001 0.000000 0.000000 0.000000 1.000000 0.000000 0.000000 0.000000 1.000001 6527.dat
1 14 190.000000 -24.499610 -91.020050 -1.000001 0.000000 0.000000 0.000000 1.000000 0.000000 0.000000 0.000000 -1.000001 6527.dat
0 STEP
1 14 -90.000140 -24.499800 68.009980 -1.000000 0.000000 0.000000 0.000000 1.000000 0.000000 0.000000 0.000000 -1.000000 6527.dat
1 14 -90.000020 -24.499800 -130.000000 1.000000 0.000000 -0.000001 0.000000 1.000000 0.000000 0.000001 0.000000 1.000000 6527.dat
1 14 190.000000 -24.499610 69.080080 -1.000001 0.000000 0.000000 0.000000 1.000000 0.000000 0.000000 0.000000 -1.000001 6527.dat
1 14 190.000100 -24.499610 -128.930100 1.000001 0.000000 -0.000001 0.000000 1.000000 0.000000 0.000001 0.000000 1.000001 6527.dat
1 0 -90.000140 -24.499800 68.009980 -1.000000 0.000000 0.000000 0.000000 1.000000 0.000000 0.000000 0.000000 -1.000000 6292.dat
1 0 190.000000 -24.499610 69.080080 -1.000000 0.000000 0.000000 0.000000 1.000000 0.000000 0.000000 0.000000 -1.000000 6292.dat
1 0 190.000100 -24.499610 -128.930100 1.000000 0.000000 0.000000 0.000000 1.000000 0.000000 0.000000 0.000000 1.000000 6292.dat
1 0 -90.000030 -24.499800 -130.000000 1.000000 0.000000 0.000000 0.000000 1.000000 0.000000 0.000000 0.000000 1.000000 6292.dat
0 STEP
1 2 -10.000000 -96.500000 -30.000000 1.000000 0.000000 0.000000 0.000000 1.000000 0.000000 0.000000 0.000000 1.000000 3011.dat
1 4 150.000000 -96.500000 -30.000000 1.000000 0.000000 0.000000 0.000000 1.000000 0.000000 0.000000 0.000000 1.000000 3011.dat
0 STEP
1 4 30.000000 -144.500000 -30.000000 0.000000 0.000000 1.000000 0.000000 1.000000 0.000000 -1.000000 0.000000 0.000000 3011.dat
1 2 110.000000 -144.500000 -30.000000 0.000000 0.000000 1.000000 0.000000 1.000000 0.000000 -1.000000 0.000000 0.000000 3011.dat
1 14 190.000000 -144.500000 -30.000000 1.000000 0.000000 0.000000 0.000000 1.000000 0.000000 0.000000 0.000000 1.000000 3437.dat
0 STEP
1 14 190.000000 -192.500000 -30.000000 0.000000 0.000000 1.000000 0.000000 1.000000 0.000000 -1.000000 0.000000 0.000000 6394.dat
0 STEP
0 NOFILE
